<?xml version="1.0" standalone="no"?>
 <!DOCTYPE svg PUBLIC "-//W3C//DTD SVG 1.1//EN" 
 "http://www.w3.org/Graphics/SVG/1.1/DTD/svg11.dtd"> 
<svg xmlns="http://www.w3.org/2000/svg" version="1.1" 
    width="27.94cm" height="21.59cm" viewBox="0 0 110000 85000 ">
<title>SVG Picture created as ESPBee-F.SilkS.svg date 2017/07/27 01:18:54 </title>
  <desc>Picture generated by PCBNEW </desc>
<g style="fill:#000000; fill-opacity:1;stroke:#000000; stroke-opacity:1;
stroke-linecap:round; stroke-linejoin:round; "
 transform="translate(0 0) scale(1 1)">
</g>
<g style="fill:#000000; fill-opacity:0.0; 
stroke:#000000; stroke-width:-0.000393701; stroke-opacity:1; 
stroke-linecap:round; stroke-linejoin:round;">
</g>
<g style="fill:#000000; fill-opacity:0.0; 
stroke:#000000; stroke-width:50; stroke-opacity:1; 
stroke-linecap:round; stroke-linejoin:round;">
<path d="M45984 30472
L41574 30472
" />
<path d="M48582 33070
L45984 30472
" />
<path d="M38976 33070
L41574 30472
" />
<path d="M43057 40883
L42957 40740
" />
<path d="M42886 40883
L42886 40583
L43000 40583
L43029 40598
L43043 40612
L43057 40640
L43057 40683
L43043 40712
L43029 40726
L43000 40740
L42886 40740
" />
<path d="M43186 40726
L43286 40726
" />
<path d="M43329 40883
L43186 40883
L43186 40583
L43329 40583
" />
<path d="M43415 40583
L43515 40883
L43615 40583
" />
<path d="M44100 40883
L43929 40883
" />
<path d="M44015 40883
L44015 40583
L43986 40626
L43957 40655
L43929 40669
" />
<path d="M44229 40855
L44243 40869
L44229 40883
L44215 40869
L44229 40855
L44229 40883
" />
<path d="M44429 40583
L44457 40583
L44486 40598
L44500 40612
L44515 40640
L44529 40698
L44529 40769
L44515 40826
L44500 40855
L44486 40869
L44457 40883
L44429 40883
L44400 40869
L44386 40855
L44372 40826
L44357 40769
L44357 40698
L44372 40640
L44386 40612
L44400 40598
L44429 40583
" />
<path d="M38976 41338
L38976 33070
" />
<path d="M48582 41338
L48582 33070
" />
<path d="M38976 41338
L48582 41338
" />
<path d="M46929 39921
L46023 39921
" />
<path d="M40629 39921
L40629 39566
" />
<path d="M46929 39921
L46929 39566
" />
<path d="M46929 30472
L46929 33464
" />
<path d="M41535 39921
L40629 39921
" />
<path d="M40629 33464
L40629 30472
" />
<path d="M40629 30472
L46929 30472
" />
<path d="M40795 40150
L40795 40393
L40809 40422
L40823 40436
L40852 40450
L40909 40450
L40937 40436
L40952 40422
L40966 40393
L40966 40150
" />
<path d="M41266 40450
L41095 40450
" />
<path d="M41180 40450
L41180 40150
L41152 40193
L41123 40222
L41095 40236
" />
</g> 
</svg>
