<?xml version="1.0" standalone="no"?>
 <!DOCTYPE svg PUBLIC "-//W3C//DTD SVG 1.1//EN" 
 "http://www.w3.org/Graphics/SVG/1.1/DTD/svg11.dtd"> 
<svg xmlns="http://www.w3.org/2000/svg" version="1.1" 
    width="27.94cm" height="21.59cm" viewBox="0 0 110000 85000 ">
<title>SVG Picture created as ESPBee-B.SilkS.svg date 2017/07/27 01:18:54 </title>
  <desc>Picture generated by PCBNEW </desc>
<g style="fill:#000000; fill-opacity:1;stroke:#000000; stroke-opacity:1;
stroke-linecap:round; stroke-linejoin:round; "
 transform="translate(0 0) scale(1 1)">
</g>
<g style="fill:#000000; fill-opacity:0.0; 
stroke:#000000; stroke-width:-0.000393701; stroke-opacity:1; 
stroke-linecap:round; stroke-linejoin:round;">
</g>
<g style="fill:#000000; fill-opacity:0.0; 
stroke:#000000; stroke-width:50; stroke-opacity:1; 
stroke-linecap:round; stroke-linejoin:round;">
<path d="M45984 30472
L41574 30472
" />
<path d="M48582 33070
L45984 30472
" />
<path d="M38976 33070
L41574 30472
" />
<path d="M38976 41338
L38976 33070
" />
<path d="M48582 41338
L48582 33070
" />
<path d="M38976 41338
L48582 41338
" />
<path d="M42776 34638
L41876 34638
" />
<path d="M41876 34638
L41876 35838
" />
<path d="M41876 35838
L42776 35838
" />
<path d="M43376 35838
L44276 35838
" />
<path d="M44276 35838
L44276 34638
" />
<path d="M44276 34638
L43376 34638
" />
<path d="M42776 33338
L41876 33338
" />
<path d="M41876 33338
L41876 34538
" />
<path d="M41876 34538
L42776 34538
" />
<path d="M43376 34538
L44276 34538
" />
<path d="M44276 34538
L44276 33338
" />
<path d="M44276 33338
L43376 33338
" />
</g>
<g style="fill:#000000; fill-opacity:0.0; 
stroke:#000000; stroke-width:51.1811; stroke-opacity:1; 
stroke-linecap:round; stroke-linejoin:round;">
<path d="M42535 36514
L42535 35962
" />
<path d="M42535 35962
L43716 35962
" />
<path d="M43716 35962
L43716 36514
" />
<path d="M43716 36514
L42535 36514
" />
<path d="M42535 37114
L42535 36562
" />
<path d="M42535 36562
L43716 36562
" />
<path d="M43716 36562
L43716 37114
" />
<path d="M43716 37114
L42535 37114
" />
</g>
<g style="fill:#000000; fill-opacity:1.0; 
stroke:#000000; stroke-width:3.93701; stroke-opacity:1; 
stroke-linecap:round; stroke-linejoin:round;">
<polyline style="fill-rule:evenodd;"
points="42301,39459
42296,39459
42292,39459
42288,39459
42285,39459
42282,39459
42280,39459
42278,39459
42277,39459
42276,39460
42275,39460
42274,39460
42274,39460
42274,39460
42273,39460
42271,39461
42269,39462
42266,39464
42262,39466
42258,39469
42253,39472
42248,39475
42242,39478
42236,39482
42233,39484
42227,39487
42221,39491
42216,39494
42211,39497
42207,39499
42203,39502
42199,39503
42197,39505
42195,39506
42194,39507
42194,39507
42193,39507
42192,39508
42190,39510
42188,39512
42185,39515
42181,39519
42177,39522
42173,39527
42169,39531
42164,39536
42159,39541
42154,39546
42149,39551
42144,39555
42140,39559
42136,39563
42133,39567
42130,39569
42127,39572
42126,39573
42125,39574
42124,39575
42123,39575
42122,39575
42120,39576
42118,39578
42115,39579
42111,39581
42107,39584
42102,39587
42096,39590
42089,39594
42082,39598
42076,39602
42070,39605
42064,39609
42058,39612
42053,39616
42048,39619
42043,39621
42039,39624
42036,39626
42033,39627
42031,39628
42031,39628
42025,39633
42019,39636
42014,39641
42009,39645
42001,39653
41995,39661
41989,39670
41984,39680
41980,39690
41977,39700
41975,39710
41974,39721
41974,39731
41975,39742
41977,39753
41979,39762
41983,39773
41988,39782
41994,39791
42000,39800
42008,39807
42016,39814
42024,39821
42033,39826
42043,39831
42053,39834
42061,39836
42070,39838
42080,39839
42090,39839
42101,39838
42110,39837
42117,39835
42123,39833
42129,39831
42135,39828
42141,39825
42147,39822
42148,39821
42149,39820
42152,39819
42154,39817
42158,39815
42162,39812
42167,39810
42172,39807
42178,39803
42183,39800
42189,39796
42192,39795
42198,39792
42203,39788
42209,39785
42214,39782
42219,39779
42223,39776
42227,39774
42230,39772
42233,39770
42234,39769
42235,39769
42243,39762
42250,39754
42257,39746
42263,39737
42268,39727
42272,39717
42276,39707
42277,39701
42278,39697
42278,39693
42278,39690
42263,39690
42263,39691
42262,39693
42262,39696
42261,39699
42261,39701
42260,39704
42260,39704
42257,39713
42253,39722
42248,39731
42243,39739
42236,39746
42229,39753
42224,39757
42223,39758
42222,39759
42219,39760
42216,39762
42213,39764
42210,39766
42206,39768
42202,39770
42199,39773
42196,39775
42193,39776
42190,39778
42188,39779
42187,39780
42187,39780
42186,39780
42186,39780
42186,39779
42187,39778
42188,39776
42189,39774
42191,39768
42194,39761
42196,39753
42197,39746
42199,39739
42199,39732
42199,39729
42199,39726
42231,39708
42236,39704
42241,39701
42246,39699
42250,39696
42254,39694
42257,39692
42260,39691
42262,39690
42263,39689
42263,39689
42263,39690
42278,39690
42279,39689
42279,39685
42279,39681
42279,39681
42279,39678
42285,39672
42291,39666
42403,39666
42516,39666
42651,39801
42640,39801
42632,39802
42625,39802
42618,39803
42612,39804
42607,39805
42606,39805
42601,39807
42596,39809
42592,39812
42590,39814
42588,39817
42587,39821
42587,39823
42588,39826
42589,39829
42592,39832
42592,39833
42595,39835
42598,39837
42602,39840
42607,39842
42613,39844
42619,39847
42625,39848
42629,39850
42632,39851
42635,39852
42637,39852
42638,39852
42640,39853
42641,39852
42642,39852
42642,39852
42645,39851
42647,39849
42648,39846
42649,39844
42649,39841
42648,39839
42647,39836
42645,39835
42644,39834
42642,39834
42640,39833
42638,39832
42635,39831
42633,39831
42630,39830
42626,39828
42623,39827
42620,39826
42620,39826
42617,39825
42616,39824
42615,39824
42615,39824
42615,39823
42617,39823
42619,39823
42622,39822
42626,39822
42630,39822
42634,39821
42638,39821
42640,39821
42643,39821
42647,39820
42650,39820
42652,39820
42653,39820
42656,39820
42656,39868
42656,39877
42656,39885
42656,39892
42656,39899
42656,39904
42656,39908
42656,39912
42656,39914
42656,39915
42656,39915
42655,39915
42653,39916
42650,39916
42647,39917
42643,39917
42639,39918
42635,39918
42632,39919
42629,39919
42626,39920
42626,39920
42618,39922
42611,39924
42606,39926
42601,39928
42597,39931
42594,39934
42592,39937
42591,39940
42591,39943
42591,39946
42592,39950
42594,39953
42597,39956
42601,39959
42606,39962
42612,39965
42618,39968
42622,39969
42625,39970
42629,39971
42632,39973
42635,39973
42638,39974
42639,39974
42640,39974
42643,39974
42645,39972
42647,39970
42649,39968
42649,39965
42649,39962
42648,39960
42647,39959
42646,39957
42644,39956
42642,39955
42638,39954
42637,39954
42632,39952
42627,39950
42623,39949
42619,39947
42616,39945
42615,39945
42613,39944
42615,39943
42618,39942
42622,39941
42627,39940
42632,39939
42637,39938
42642,39937
42648,39936
42649,39936
42651,39936
42653,39935
42655,39935
42655,39935
42656,39935
42656,40037
42648,40039
42642,40039
42636,40040
42631,40041
42625,40043
42620,40044
42616,40045
42615,40045
42608,40047
42603,40050
42599,40053
42595,40056
42593,40059
42591,40062
42591,40065
42591,40069
42592,40072
42594,40075
42597,40078
42600,40081
42605,40084
42610,40087
42617,40089
42624,40092
42625,40092
42629,40093
42632,40094
42634,40095
42636,40095
42637,40096
42639,40096
42639,40096
42641,40096
42643,40095
42644,40095
42645,40094
42645,40094
42647,40092
42649,40089
42649,40086
42649,40083
42647,40081
42646,40080
42645,40078
42643,40077
42640,40077
42636,40075
42632,40074
42628,40073
42624,40071
42621,40070
42618,40069
42618,40068
42613,40066
42616,40065
42618,40064
42622,40064
42626,40062
42631,40061
42637,40060
42643,40059
42649,40058
42654,40057
42656,40057
42656,40159
42655,40159
42649,40160
42643,40161
42639,40162
42635,40163
42632,40163
42630,40164
42628,40164
42626,40164
42624,40165
42624,40165
42615,40167
42609,40169
42603,40171
42598,40174
42594,40176
42591,40179
42588,40182
42587,40185
42587,40189
42587,40191
42588,40194
42589,40197
42590,40198
42594,40202
42598,40204
42604,40207
42610,40210
42618,40213
42626,40215
42633,40217
42637,40217
42640,40218
42642,40218
42644,40217
42645,40216
42646,40215
42648,40212
42649,40209
42649,40207
42648,40204
42646,40201
42646,40201
42645,40200
42643,40199
42640,40198
42636,40197
42636,40197
42629,40195
42623,40194
42618,40192
42614,40191
42610,40189
42612,40188
42614,40188
42616,40187
42619,40186
42623,40185
42626,40184
42629,40184
42630,40184
42632,40183
42634,40183
42638,40182
42641,40181
42644,40181
42648,40180
42651,40180
42653,40179
42655,40179
42655,40179
42656,40179
42656,40179
42656,40180
42656,40180
42656,40181
42656,40183
42656,40185
42656,40187
42656,40190
42656,40194
42656,40199
42656,40205
42656,40211
42656,40216
42656,40253
42610,40300
42563,40346
42547,40346
42547,40216
42531,40216
42531,40350
42499,40369
42467,40388
42467,40256
42467,40244
42467,40233
42467,40221
42467,40210
42467,40200
42467,40190
42467,40181
42467,40172
42467,40163
42467,40156
42467,40149
42467,40143
42467,40137
42467,40133
42467,40129
42467,40126
42467,40125
42467,40124
42467,40124
42468,40124
42469,40123
42471,40122
42474,40120
42477,40118
42481,40116
42485,40113
42489,40111
42494,40108
42499,40105
42503,40102
42508,40100
42513,40097
42517,40094
42520,40092
42524,40090
42527,40089
42529,40087
42530,40087
42531,40086
42531,40086
42531,40087
42531,40088
42531,40091
42531,40094
42531,40099
42531,40104
42531,40110
42531,40117
42531,40124
42531,40133
42531,40141
42531,40151
42531,40161
42531,40171
42531,40182
42531,40193
42531,40204
42531,40216
42547,40216
42547,40076
42550,40072
42552,40071
42554,40068
42556,40066
42558,40064
42564,40055
42570,40046
42574,40036
42578,40026
42580,40016
42582,40005
42582,39997
42567,39997
42566,40007
42564,40017
42561,40026
42557,40035
42554,40041
42550,40047
42546,40053
42544,40055
42543,40057
42541,40059
42539,40061
42538,40062
42536,40064
42534,40066
42531,40067
42528,40069
42524,40072
42520,40074
42515,40077
42513,40079
42508,40082
42503,40084
42500,40086
42497,40088
42495,40089
42493,40090
42492,40090
42492,40091
42491,40091
42491,40091
42491,40091
42491,40090
42492,40089
42493,40087
42493,40086
42495,40081
42497,40075
42499,40068
42500,40063
42502,40053
42503,40042
42502,40032
42501,40021
42498,40011
42495,40001
42491,39992
42486,39983
42480,39974
42473,39966
42466,39959
42457,39952
42448,39946
42440,39941
42434,39938
42428,39936
42423,39934
42416,39933
42410,39931
42402,39930
42397,39929
42394,39929
42396,39926
42397,39926
42398,39925
42400,39923
42403,39921
42407,39919
42412,39916
42417,39913
42419,39912
42425,39909
42429,39907
42432,39905
42435,39904
42438,39902
42439,39901
42441,39901
42442,39900
42444,39900
42445,39900
42446,39899
42446,39899
42457,39898
42467,39897
42477,39898
42488,39899
42498,39902
42507,39905
42517,39910
42524,39914
42528,39917
42533,39921
42537,39925
42542,39930
42546,39934
42549,39938
42550,39939
42555,39947
42559,39956
42562,39965
42565,39974
42566,39983
42567,39987
42567,39997
42582,39997
42583,39994
42582,39986
42581,39976
42579,39965
42575,39955
42571,39945
42566,39936
42560,39927
42553,39919
42546,39911
42537,39904
42528,39898
42519,39893
42509,39889
42498,39886
42488,39883
42477,39882
42467,39881
42456,39882
42445,39883
42435,39886
42425,39889
42415,39894
42406,39899
42397,39905
42394,39907
42392,39908
42391,39909
42389,39911
42386,39912
42383,39914
42380,39916
42375,39919
42370,39921
42364,39925
42363,39926
42358,39928
42353,39931
42348,39934
42344,39936
42340,39938
42337,39940
42334,39941
42332,39942
42332,39943
42323,39948
42314,39954
42307,39961
42299,39969
42293,39977
42289,39983
42283,39993
42279,40003
42276,40013
42273,40023
42272,40034
42272,40045
42272,40049
42273,40059
42276,40070
42279,40080
42283,40090
42289,40100
42295,40109
42302,40117
42303,40118
42308,40123
42308,40313
42295,40300
42281,40286
42281,40285
42265,40285
42201,40323
42201,40320
42200,40318
42200,40315
42199,40312
42199,40311
42196,40300
42193,40290
42188,40281
42183,40272
42177,40263
42170,40255
42162,40248
42154,40241
42148,40238
42140,40233
42130,40228
42121,40225
42111,40223
42100,40221
42094,40220
42089,40220
42106,40210
42110,40207
42115,40205
42118,40203
42122,40201
42125,40199
42127,40198
42128,40197
42137,40194
42146,40191
42156,40190
42166,40189
42175,40189
42185,40190
42195,40192
42199,40194
42208,40197
42216,40201
42224,40206
42232,40212
42239,40219
42241,40221
42247,40229
42252,40237
42257,40245
42260,40254
42263,40263
42265,40272
42265,40280
42265,40285
42281,40285
42281,40283
42281,40277
42280,40270
42279,40262
42277,40255
42275,40248
42273,40242
42268,40232
42262,40223
42255,40214
42248,40206
42240,40199
42232,40192
42223,40187
42213,40182
42203,40178
42192,40175
42184,40174
42180,40174
42175,40173
42169,40173
42164,40173
42158,40173
42154,40174
42153,40174
42145,40176
42136,40178
42128,40180
42121,40183
42119,40185
42118,40185
42116,40186
42113,40188
42110,40190
42106,40192
42101,40195
42096,40197
42091,40201
42086,40204
42081,40207
42075,40210
42069,40214
42063,40217
42058,40220
42053,40223
42048,40226
42044,40229
42040,40231
42038,40232
42036,40233
42033,40235
42029,40237
42026,40239
42023,40241
42021,40243
42021,40243
42018,40246
42014,40249
42010,40252
42007,40256
42003,40259
42001,40263
41999,40264
41993,40274
41988,40283
41983,40293
41980,40304
41978,40314
41976,40325
41976,40335
41977,40346
41979,40357
41981,40368
41982,40369
41986,40379
41991,40389
41996,40398
42003,40406
42010,40414
42018,40421
42026,40427
42035,40432
42045,40437
42055,40441
42065,40443
42074,40445
42077,40445
42080,40445
42083,40446
42084,40446
42089,40446
42142,40499
42196,40553
42308,40553
42308,40778
42066,40778
42061,40774
42054,40768
42046,40763
42038,40758
42030,40754
42023,40752
42014,40749
42006,40747
41998,40746
41989,40745
41983,40745
41973,40745
41962,40747
41953,40749
41943,40752
41934,40756
41932,40757
41930,40758
41928,40759
41925,40761
41922,40763
41918,40765
41913,40768
41908,40771
41902,40774
41897,40777
41891,40781
41885,40784
41879,40788
41873,40791
41868,40794
41862,40798
41857,40801
41852,40803
41848,40806
41845,40808
41842,40810
41839,40811
41838,40812
41830,40818
41822,40826
41814,40834
41808,40842
41802,40851
41797,40861
41794,40871
41791,40882
41789,40892
41789,40896
41788,40900
41788,40904
41788,40909
41789,40913
41789,40917
41789,40919
41791,40931
41794,40941
41798,40951
41803,40961
41809,40970
41816,40978
41824,40986
41832,40994
41833,40994
41842,41000
41851,41005
41861,41010
41872,41013
41883,41016
41888,41017
41893,41017
41898,41017
41903,41017
41908,41017
41913,41017
41918,41017
41919,41017
41930,41015
41941,41012
41951,41008
41961,41003
41970,40997
41979,40990
41982,40988
41985,40985
42226,40985
42247,40985
42267,40985
42286,40985
42304,40985
42321,40985
42337,40985
42353,40985
42367,40985
42380,40984
42392,40984
42403,40984
42413,40984
42422,40984
42431,40984
42438,40984
42445,40984
42450,40984
42455,40984
42459,40984
42462,40984
42465,40984
42466,40984
42467,40984
42467,40984
42467,40984
42469,40983
42471,40981
42474,40979
42477,40977
42481,40975
42486,40972
42491,40969
42496,40965
42502,40962
42506,40959
42513,40955
42519,40951
42524,40948
42528,40945
42532,40943
42535,40940
42538,40939
42540,40937
42542,40936
42543,40935
42544,40935
42544,40934
42545,40933
42545,40933
42545,40933
42547,40930
42547,40553
42531,40553
42531,40925
42499,40945
42494,40948
42489,40951
42484,40954
42480,40957
42476,40959
42473,40962
42470,40963
42468,40964
42467,40965
42467,40965
42467,40965
42467,40963
42467,40960
42467,40957
42467,40952
42467,40947
42467,40941
42467,40934
42467,40926
42467,40917
42467,40908
42467,40898
42467,40887
42467,40876
42467,40864
42467,40852
42467,40839
42467,40826
42467,40812
42467,40798
42467,40784
42467,40769
42467,40759
42467,40553
42531,40553
42547,40553
42564,40553
42569,40553
42572,40553
42575,40553
42578,40553
42579,40552
42580,40552
42581,40552
42582,40552
42582,40552
42583,40551
42584,40550
42587,40549
42590,40547
42593,40545
42597,40542
42602,40540
42607,40536
42613,40533
42619,40530
42623,40527
42663,40504
42679,40488
42681,40485
42685,40482
42689,40478
42694,40473
42699,40468
42704,40463
42710,40458
42715,40452
42721,40446
42727,40441
42731,40437
42748,40421
42763,40405
42779,40390
42793,40375
42807,40362
42820,40348
42832,40336
42844,40324
42855,40312
42865,40302
42843,40302
42842,40303
42841,40304
42840,40306
42837,40308
42834,40311
42831,40315
42827,40319
42822,40323
42817,40328
42812,40334
42807,40340
42801,40346
42794,40352
42788,40358
42781,40365
42774,40372
42768,40378
42761,40385
42754,40392
42747,40399
42740,40406
42733,40412
42727,40419
42722,40423
42717,40429
42711,40434
42705,40440
42699,40446
42694,40451
42688,40456
42683,40461
42679,40466
42675,40470
42672,40473
42670,40475
42653,40491
42643,40497
42640,40499
42637,40501
42635,40502
42633,40503
42632,40503
42632,40503
42632,40503
42633,40502
42635,40500
42637,40498
42639,40496
42642,40493
42646,40490
42647,40488
42664,40472
42679,40456
42695,40441
42709,40427
42723,40413
42736,40400
42748,40388
42759,40376
42770,40365
42780,40354
42789,40345
42798,40335
42805,40328
42812,40320
42827,40311
42831,40309
42834,40307
42837,40305
42840,40304
42841,40303
42842,40302
42843,40302
42865,40302
42866,40301
42875,40291
42885,40281
42887,40278
42895,40269
42895,40153
42879,40153
42879,40262
42847,40281
42816,40300
42815,40230
42815,40220
42815,40210
42815,40201
42815,40193
42815,40185
42816,40179
42816,40174
42816,40169
42816,40165
42816,40163
42816,40162
42800,40162
42800,40310
42792,40319
42783,40328
42774,40338
42763,40349
42752,40361
42740,40373
42728,40386
42715,40399
42701,40413
42686,40428
42671,40443
42655,40458
42645,40468
42639,40474
42633,40480
42627,40485
42622,40491
42616,40496
42611,40502
42606,40507
42601,40511
42597,40515
42594,40519
42592,40520
42575,40537
42451,40537
42451,40969
42195,40969
42178,40969
42161,40969
42145,40969
42130,40969
42115,40969
42102,40969
42090,40969
42078,40969
42068,40969
42058,40969
42049,40969
42040,40969
42033,40969
42026,40969
42019,40969
42013,40969
42008,40969
42003,40969
41999,40969
41996,40969
41992,40969
41989,40969
41987,40969
41985,40969
41983,40969
41982,40969
41981,40969
41980,40969
41979,40970
41978,40970
41978,40970
41978,40970
41978,40970
41978,40970
41978,40970
41978,40970
41977,40971
41976,40972
41974,40974
41972,40975
41972,40976
41963,40982
41955,40988
41945,40993
41936,40997
41926,41000
41916,41001
41913,41002
41910,41002
41906,41002
41901,41002
41898,41002
41894,41002
41892,41001
41881,41000
41871,40997
41862,40993
41853,40989
41845,40983
41837,40977
41830,40970
41824,40963
41818,40955
41813,40946
41809,40937
41809,40935
41807,40929
41806,40923
41805,40918
41804,40911
41804,40908
41804,40899
41805,40892
41806,40884
41808,40877
41810,40872
41814,40863
41819,40854
41825,40846
41831,40838
41838,40832
41846,40826
41855,40820
41864,40816
41874,40813
41884,40810
41894,40809
41904,40808
41914,40809
41923,40810
41933,40813
41943,40816
41952,40820
41960,40825
41968,40831
41975,40838
41979,40841
42323,40841
42323,40794
42308,40794
42308,40826
42160,40826
42146,40826
42133,40826
42120,40826
42108,40826
42096,40826
42085,40826
42075,40826
42065,40826
42056,40826
42048,40825
42040,40825
42034,40825
42028,40825
42023,40825
42019,40825
42016,40825
42014,40825
42013,40825
42013,40825
42013,40825
42015,40824
42017,40823
42020,40821
42023,40819
42027,40816
42031,40814
42036,40811
42038,40809
42063,40794
42308,40794
42323,40794
42323,40784
42048,40784
42048,40784
42046,40785
42044,40787
42041,40788
42038,40791
42034,40793
42030,40796
42025,40799
42020,40802
42016,40804
41984,40824
41980,40820
41977,40818
41975,40816
41971,40814
41969,40812
41969,40812
41959,40807
41950,40802
41940,40798
41929,40795
41919,40793
41917,40793
41914,40793
41911,40793
41908,40792
41907,40792
41903,40792
41920,40782
41924,40779
41928,40777
41931,40775
41934,40773
41937,40772
41939,40771
41940,40770
41949,40767
41957,40764
41965,40762
41973,40761
41982,40761
41983,40761
41994,40761
42004,40763
42014,40765
42024,40769
42033,40773
42042,40779
42045,40781
42046,40782
42047,40783
42048,40784
42048,40784
42323,40784
42323,40537
42202,40537
42149,40484
42095,40430
42086,40430
42075,40429
42066,40427
42056,40425
42047,40421
42039,40416
42030,40410
42023,40404
42016,40397
42010,40389
42004,40381
42000,40372
41996,40363
41994,40353
41993,40350
41992,40340
41992,40330
41992,40321
41994,40311
41997,40302
42000,40293
42005,40285
42010,40277
42016,40269
42022,40262
42030,40256
42038,40251
42046,40246
42055,40242
42065,40239
42068,40238
42078,40237
42088,40236
42098,40237
42108,40238
42118,40241
42127,40244
42133,40247
42142,40252
42150,40258
42157,40265
42164,40272
42170,40280
42175,40289
42176,40290
42180,40300
42183,40309
42185,40319
42185,40328
42186,40334
42185,40340
42220,40375
42255,40409
42323,40409
42323,40394
42308,40394
42297,40394
42294,40394
42291,40394
42289,40394
42288,40394
42287,40394
42287,40394
42288,40393
42289,40392
42291,40391
42293,40390
42296,40388
42296,40388
42299,40386
42302,40385
42304,40383
42306,40383
42307,40382
42307,40382
42308,40381
42308,40394
42323,40394
42323,40335
42308,40335
42307,40363
42284,40377
42279,40380
42275,40383
42271,40385
42267,40387
42264,40389
42262,40390
42260,40391
42259,40392
42259,40392
42259,40391
42258,40390
42256,40388
42254,40386
42251,40383
42247,40380
42244,40376
42240,40372
42235,40368
42232,40365
42227,40360
42223,40356
42219,40352
42216,40349
42213,40346
42211,40344
42210,40342
42209,40341
42208,40340
42207,40339
42207,40339
42207,40338
42207,40338
42207,40338
42207,40338
42208,40337
42210,40336
42213,40335
42216,40333
42219,40331
42224,40328
42228,40326
42232,40323
42237,40320
42242,40317
42247,40315
42251,40312
42256,40309
42260,40307
42263,40305
42266,40303
42269,40301
42271,40300
42272,40300
42272,40300
42272,40300
42274,40301
42275,40303
42278,40305
42280,40308
42283,40311
42287,40314
42290,40317
42308,40335
42323,40335
42323,40263
42323,40116
42319,40112
42312,40105
42306,40097
42300,40089
42296,40080
42293,40071
42290,40062
42288,40053
42288,40043
42288,40033
42289,40024
42292,40014
42295,40005
42297,40001
42302,39992
42307,39984
42314,39976
42321,39969
42329,39963
42337,39958
42346,39953
42355,39950
42365,39947
42374,39945
42384,39945
42394,39945
42404,39946
42414,39948
42424,39951
42433,39955
42442,39960
42450,39966
42457,39973
42464,39980
42470,39988
42471,39989
42473,39992
42475,39996
42477,40000
42479,40004
42481,40008
42482,40012
42482,40012
42485,40022
42486,40031
42487,40041
42486,40051
42485,40060
42482,40070
42479,40079
42475,40088
42469,40096
42464,40103
42462,40106
42459,40108
42457,40111
42456,40112
42451,40116
42451,40409
42523,40409
42570,40362
42547,40362
42516,40394
42488,40394
42514,40378
42541,40362
42547,40362
42570,40362
42597,40335
42672,40260
42672,40177
42674,40177
42675,40177
42677,40176
42680,40176
42680,40176
42682,40176
42684,40176
42688,40175
42692,40175
42696,40174
42701,40174
42707,40173
42712,40172
42716,40172
42723,40171
42730,40170
42738,40169
42745,40169
42752,40168
42759,40167
42766,40166
42771,40166
42771,40166
42776,40165
42781,40165
42786,40164
42789,40164
42793,40163
42795,40163
42797,40163
42797,40163
42800,40162
42816,40162
42816,40161
42816,40161
42816,40161
42818,40160
42821,40160
42824,40160
42828,40159
42832,40159
42837,40158
42843,40158
42847,40157
42852,40156
42857,40156
42862,40155
42867,40155
42871,40154
42874,40154
42876,40154
42878,40154
42878,40153
42879,40153
42895,40153
42895,40151
42904,40150
42913,40148
42922,40146
42930,40144
42937,40142
42943,40139
42947,40137
42951,40134
42954,40132
42956,40129
42957,40127
42958,40124
42958,40120
42957,40116
42956,40113
42954,40111
42952,40109
42948,40106
42943,40103
42937,40101
42931,40098
42923,40096
42916,40094
42913,40093
42910,40093
42908,40093
42906,40094
42905,40095
42905,40095
42903,40097
42902,40100
42901,40103
42902,40106
42903,40108
42905,40110
42908,40112
42910,40112
42915,40114
42919,40115
42923,40116
42927,40118
42930,40119
42932,40120
42934,40121
42935,40121
42935,40121
42934,40122
42933,40123
42930,40123
42927,40124
42923,40125
42919,40126
42915,40127
42911,40128
42906,40129
42902,40130
42901,40130
42895,40131
42895,40083
42879,40083
42879,40092
42879,40099
42879,40106
42879,40112
42879,40117
42879,40122
42879,40125
42879,40128
42879,40130
42879,40132
42879,40133
42879,40134
42878,40134
42878,40134
42876,40134
42874,40134
42870,40135
42866,40135
42862,40136
42857,40136
42852,40137
42848,40137
42843,40138
42837,40139
42833,40139
42828,40140
42824,40140
42821,40140
42819,40141
42817,40141
42817,40141
42815,40141
42815,40092
42800,40092
42800,40143
42798,40143
42798,40143
42796,40143
42793,40143
42790,40144
42786,40144
42781,40145
42775,40146
42769,40146
42762,40147
42755,40148
42747,40149
42739,40150
42737,40150
42729,40151
42721,40152
42714,40153
42707,40153
42700,40154
42694,40155
42689,40155
42684,40156
42680,40156
42677,40157
42675,40157
42674,40157
42674,40157
42672,40157
42672,40106
42672,40055
42704,40052
42710,40051
42716,40050
42723,40049
42729,40049
42734,40048
42739,40048
42743,40047
42747,40047
42748,40046
42752,40046
42756,40046
42761,40045
42767,40044
42772,40044
42778,40043
42779,40043
42784,40042
42788,40042
42791,40042
42795,40041
42797,40041
42798,40041
42799,40041
42799,40041
42799,40041
42799,40042
42799,40043
42799,40045
42799,40047
42800,40050
42800,40054
42800,40058
42800,40063
42800,40069
42800,40075
42800,40083
42800,40092
42815,40092
42815,40039
42826,40038
42829,40037
42833,40037
42837,40036
42842,40036
42847,40035
42853,40035
42857,40034
42862,40034
42866,40033
42870,40033
42874,40032
42876,40032
42878,40032
42879,40032
42879,40032
42879,40032
42879,40034
42879,40036
42879,40039
42879,40044
42879,40048
42879,40054
42879,40060
42879,40066
42879,40073
42879,40080
42879,40083
42895,40083
42895,40081
42895,40072
42895,40064
42895,40057
42895,40051
42895,40046
42895,40042
42896,40038
42896,40035
42896,40033
42896,40032
42896,40031
42896,40030
42896,40030
42897,40030
42898,40030
42901,40029
42903,40029
42906,40029
42915,40027
42924,40026
42931,40024
42937,40022
42942,40020
42947,40018
42951,40016
42953,40014
42956,40011
42957,40008
42958,40006
42958,40004
42959,40002
42958,40002
42958,39998
42957,39995
42954,39992
42951,39989
42948,39986
42943,39983
42937,39980
42930,39977
42923,39975
42920,39974
42917,39973
42915,39972
42913,39971
42911,39971
42910,39971
42909,39971
42907,39972
42904,39974
42902,39976
42902,39977
42901,39979
42901,39982
42902,39984
42903,39987
42905,39989
42905,39989
42906,39989
42908,39990
42910,39991
42912,39992
42917,39993
42922,39995
42926,39997
42929,39998
42932,39999
42934,40000
42935,40001
42936,40002
42936,40002
42935,40002
42933,40003
42931,40004
42927,40005
42924,40006
42920,40006
42915,40007
42911,40008
42907,40009
42906,40009
42903,40009
42901,40010
42898,40010
42897,40010
42897,40010
42895,40010
42895,39961
42879,39961
42879,40012
42873,40013
42871,40013
42868,40013
42865,40014
42861,40014
42856,40015
42851,40015
42846,40016
42842,40016
42837,40017
42833,40017
42828,40018
42824,40018
42821,40019
42819,40019
42817,40019
42817,40019
42815,40019
42815,39968
42815,39961
42815,39954
42815,39947
42815,39941
42815,39935
42815,39930
42816,39926
42816,39922
42816,39920
42816,39919
42800,39919
42800,39970
42799,40021
42737,40028
42729,40029
42721,40030
42714,40031
42707,40032
42700,40032
42694,40033
42689,40034
42684,40034
42680,40035
42677,40035
42675,40035
42674,40035
42674,40035
42672,40035
42672,39984
42672,39976
42672,39968
42672,39961
42672,39955
42672,39950
42672,39946
42672,39943
42672,39940
42672,39938
42672,39936
42672,39935
42673,39934
42673,39933
42673,39933
42673,39933
42674,39933
42675,39933
42678,39933
42681,39932
42685,39932
42689,39931
42694,39931
42697,39931
42703,39930
42709,39929
42715,39929
42721,39928
42726,39927
42731,39927
42735,39926
42735,39926
42739,39926
42744,39925
42749,39925
42755,39924
42760,39923
42767,39923
42772,39922
42775,39922
42800,39919
42816,39919
42816,39918
42816,39917
42816,39917
42816,39917
42818,39917
42820,39916
42824,39916
42828,39916
42832,39915
42837,39915
42843,39914
42847,39913
42853,39913
42858,39912
42863,39912
42867,39911
42871,39911
42874,39910
42876,39910
42878,39910
42878,39910
42878,39910
42879,39910
42879,39911
42879,39912
42879,39913
42879,39915
42879,39918
42879,39921
42879,39924
42879,39929
42879,39934
42879,39940
42879,39947
42879,39955
42879,39961
42895,39961
42895,39908
42904,39907
42912,39906
42920,39904
42927,39903
42934,39901
42938,39900
42944,39897
42949,39895
42953,39892
42956,39889
42958,39886
42959,39882
42959,39879
42958,39875
42958,39873
42955,39870
42952,39867
42948,39864
42943,39861
42938,39858
42935,39857
42932,39856
42928,39855
42925,39853
42921,39852
42918,39851
42915,39850
42913,39850
42911,39849
42911,39849
42908,39850
42905,39851
42903,39853
42902,39856
42901,39859
42902,39862
42902,39864
42904,39866
42906,39867
42909,39869
42912,39870
42917,39871
42921,39873
42925,39874
42929,39876
42932,39877
42933,39878
42937,39879
42935,39880
42933,39881
42930,39882
42926,39883
42923,39884
42919,39884
42918,39885
42916,39885
42914,39885
42911,39886
42908,39886
42905,39887
42902,39887
42899,39888
42897,39888
42896,39888
42896,39888
42896,39888
42896,39886
42896,39884
42895,39881
42895,39877
42895,39872
42895,39867
42895,39861
42895,39856
42895,39854
42895,39819
42879,39819
42879,39855
42879,39890
42847,39894
42842,39894
42836,39895
42831,39896
42827,39896
42823,39897
42820,39897
42818,39897
42816,39897
42816,39897
42816,39897
42816,39895
42816,39893
42816,39890
42815,39886
42815,39881
42815,39876
42815,39870
42815,39864
42815,39859
42800,39859
42800,39866
42800,39872
42800,39878
42800,39883
42800,39887
42799,39891
42799,39895
42799,39897
42799,39899
42799,39899
42799,39899
42797,39899
42795,39900
42791,39900
42787,39901
42782,39901
42776,39902
42770,39903
42763,39903
42756,39904
42749,39905
42741,39906
42736,39906
42728,39907
42720,39908
42713,39909
42706,39910
42699,39911
42693,39911
42688,39912
42683,39913
42680,39913
42677,39913
42674,39914
42673,39914
42673,39914
42673,39914
42673,39913
42673,39913
42672,39912
42672,39912
42672,39910
42672,39908
42672,39906
42672,39903
42672,39899
42672,39895
42672,39890
42672,39884
42672,39877
42672,39869
42672,39820
42681,39820
42682,39819
42685,39819
42689,39819
42693,39819
42698,39819
42704,39819
42711,39819
42718,39819
42725,39819
42732,39819
42740,39819
42744,39819
42800,39819
42800,39859
42815,39859
42815,39858
42815,39819
42879,39819
42895,39819
42957,39819
42959,39818
42961,39816
42963,39814
42963,39811
42963,39808
42962,39805
42961,39803
42959,39801
42958,39801
42958,39801
42957,39801
42956,39800
42955,39800
42954,39800
42952,39800
42950,39800
42947,39800
42943,39800
42939,39800
42933,39800
42927,39800
42926,39800
42902,39800
42879,39800
42815,39800
42815,39774
42816,39749
42817,39748
42800,39748
42800,39800
42736,39800
42673,39800
42598,39725
42523,39651
42251,39651
42217,39685
42183,39719
42183,39724
42183,39729
42183,39735
42182,39741
42181,39746
42181,39746
42179,39756
42175,39766
42171,39774
42166,39783
42160,39790
42153,39797
42145,39804
42137,39809
42129,39814
42120,39818
42110,39821
42101,39823
42098,39823
42094,39823
42089,39823
42085,39823
42080,39823
42076,39823
42073,39823
42073,39823
42062,39821
42053,39818
42043,39814
42035,39809
42026,39803
42019,39796
42012,39789
42006,39781
42006,39780
42000,39772
41996,39762
41993,39753
41991,39743
41990,39733
41989,39727
41990,39719
41991,39711
41992,39704
41994,39696
41994,39696
41998,39687
42003,39678
42008,39669
42014,39662
42021,39655
42029,39649
42037,39643
42046,39639
42055,39635
42064,39632
42074,39630
42079,39630
42082,39630
42085,39630
42087,39630
42089,39630
42092,39630
42146,39576
42199,39522
42266,39522
42275,39522
42285,39522
42295,39522
42307,39522
42319,39522
42331,39523
42343,39523
42356,39523
42368,39523
42380,39523
42392,39523
42404,39523
42413,39523
42423,39523
42433,39523
42444,39523
42454,39523
42465,39523
42475,39523
42485,39523
42494,39523
42503,39523
42512,39523
42520,39523
42526,39523
42532,39523
42535,39523
42575,39523
42583,39531
42587,39536
42593,39542
42599,39548
42606,39555
42613,39562
42621,39570
42629,39578
42637,39585
42645,39593
42653,39601
42661,39609
42664,39612
42672,39620
42680,39627
42686,39633
42692,39639
42698,39644
42703,39649
42708,39653
42712,39657
42716,39661
42720,39665
42723,39668
42727,39672
42730,39675
42734,39679
42737,39682
42741,39686
42744,39689
42751,39696
42757,39702
42762,39707
42767,39712
42771,39716
42775,39721
42779,39725
42783,39729
42787,39733
42791,39738
42792,39739
42800,39748
42817,39748
42843,39733
42848,39730
42853,39727
42858,39724
42862,39721
42866,39719
42869,39717
42872,39715
42874,39714
42875,39714
42879,39711
42879,39800
42902,39800
42895,39800
42895,39695
42875,39695
42874,39696
42873,39697
42871,39698
42868,39699
42865,39701
42862,39703
42858,39706
42853,39708
42849,39711
42844,39714
42839,39717
42834,39719
42830,39722
42825,39725
42821,39727
42818,39729
42815,39731
42812,39732
42810,39733
42809,39734
42809,39734
42809,39734
42807,39733
42806,39731
42804,39729
42802,39726
42802,39726
42795,39719
42788,39712
42780,39703
42772,39694
42762,39685
42752,39674
42741,39663
42729,39652
42716,39640
42703,39627
42690,39615
42685,39610
42680,39605
42674,39599
42668,39594
42662,39588
42656,39582
42650,39576
42644,39570
42638,39564
42632,39558
42626,39553
42621,39547
42616,39542
42611,39537
42606,39533
42603,39529
42599,39526
42597,39523
42595,39521
42593,39519
42593,39519
42591,39517
42624,39497
42657,39477
42661,39482
42666,39488
42672,39493
42677,39498
42683,39504
42689,39510
42695,39517
42702,39523
42709,39530
42716,39538
42725,39546
42734,39554
42743,39563
42753,39573
42763,39583
42774,39593
42784,39603
42794,39612
42802,39620
42811,39628
42818,39635
42825,39643
42832,39649
42838,39656
42844,39662
42850,39668
42856,39674
42861,39680
42867,39686
42870,39690
42875,39695
42895,39695
42895,39695
42891,39690
42887,39684
42882,39679
42877,39674
42872,39668
42867,39663
42861,39657
42855,39651
42849,39644
42842,39637
42835,39630
42828,39623
42819,39615
42811,39606
42801,39597
42791,39587
42780,39577
42769,39566
42768,39565
42758,39555
42748,39546
42739,39538
42731,39530
42723,39522
42716,39515
42709,39509
42703,39502
42697,39496
42691,39491
42686,39485
42681,39480
42677,39476
42628,39476
42628,39476
42628,39477
42626,39477
42624,39479
42621,39480
42618,39482
42614,39485
42609,39487
42605,39490
42602,39492
42576,39507
42552,39507
42546,39507
42539,39508
42532,39508
42523,39508
42513,39508
42503,39508
42491,39507
42479,39507
42465,39507
42451,39507
42436,39507
42420,39507
42404,39507
42386,39507
42368,39507
42350,39507
42330,39507
42322,39507
42312,39507
42303,39507
42294,39507
42285,39507
42277,39506
42269,39506
42261,39506
42255,39506
42249,39506
42243,39506
42239,39506
42235,39506
42233,39506
42231,39507
42230,39507
42228,39507
42226,39507
42226,39506
42226,39506
42226,39506
42228,39505
42230,39504
42233,39502
42236,39500
42240,39498
42245,39495
42249,39492
42253,39490
42279,39475
42395,39475
42407,39475
42420,39475
42432,39475
42445,39475
42458,39475
42470,39475
42482,39475
42494,39476
42506,39476
42517,39476
42528,39476
42538,39476
42547,39476
42556,39476
42563,39476
42570,39476
42571,39476
42580,39476
42589,39476
42596,39476
42604,39476
42610,39476
42615,39476
42620,39476
42623,39476
42626,39476
42628,39476
42628,39476
42677,39476
42676,39475
42672,39470
42670,39468
42662,39460
42587,39460
42579,39460
42570,39460
42560,39460
42549,39460
42537,39460
42525,39460
42512,39460
42499,39460
42486,39460
42472,39460
42459,39460
42445,39460
42432,39460
42419,39460
42406,39460
42394,39459
42381,39459
42368,39459
42357,39459
42346,39459
42337,39459
42328,39459
42320,39459
42313,39459
42307,39459
42301,39459
" /> 
<polyline style="fill-rule:evenodd;"
points="42938,40204
42933,40204
42930,40204
42907,40204
42905,40205
42903,40208
42901,40210
42901,40213
42901,40216
42902,40217
42903,40219
42904,40221
42906,40222
42907,40222
42908,40222
42909,40223
42910,40223
42912,40223
42914,40223
42916,40223
42920,40223
42924,40223
42930,40223
42932,40223
42937,40223
42942,40223
42946,40223
42949,40223
42951,40223
42953,40223
42954,40223
42955,40222
42956,40222
42957,40222
42957,40222
42959,40220
42961,40218
42962,40215
42962,40212
42962,40210
42961,40208
42959,40206
42957,40205
42955,40204
42955,40204
42954,40204
42952,40204
42950,40204
42946,40204
42942,40204
42938,40204
" /> 
<polyline style="fill-rule:evenodd;"
points="41902,40850
41897,40850
41893,40851
41891,40851
41883,40853
41876,40857
41870,40861
41864,40866
41860,40870
41856,40877
41853,40883
41850,40890
41849,40898
41848,40905
41849,40913
41850,40920
41853,40927
41856,40934
41861,40940
41865,40945
41871,40950
41877,40954
41884,40957
41892,40959
41899,40960
41907,40960
41909,40960
41917,40959
41924,40957
41930,40954
41936,40950
41942,40945
41947,40940
41951,40934
41954,40927
41957,40920
41958,40913
41959,40908
41959,40906
41943,40906
41943,40909
41943,40913
41942,40915
41940,40921
41937,40927
41933,40932
41928,40936
41923,40940
41918,40942
41913,40944
41907,40944
41901,40945
41895,40944
41891,40943
41886,40941
41882,40938
41878,40935
41875,40933
41873,40930
41871,40928
41870,40926
41869,40924
41868,40923
41866,40919
41865,40915
41864,40911
41864,40906
41864,40905
41864,40899
41865,40894
41867,40889
41868,40887
41872,40881
41876,40876
41881,40872
41886,40869
41890,40867
41894,40866
41898,40866
41902,40865
41903,40865
41908,40866
41911,40866
41915,40867
41918,40868
41922,40870
41924,40871
41926,40872
41928,40874
41931,40876
41932,40877
41934,40879
41935,40881
41937,40883
41938,40885
41939,40887
41940,40890
41941,40892
41942,40895
41942,40896
41943,40899
41943,40902
41943,40906
41959,40906
41959,40900
41958,40893
41956,40886
41953,40879
41949,40873
41944,40867
41939,40862
41933,40858
41927,40855
41920,40852
41914,40850
41910,40850
41906,40850
41902,40850
" /> 
<polyline style="fill-rule:evenodd;"
points="42084,40278
42080,40278
42077,40279
42076,40279
42069,40281
42063,40284
42057,40287
42052,40292
42051,40293
42045,40299
42041,40305
42038,40311
42035,40318
42034,40326
42033,40331
42033,40339
42035,40346
42037,40353
42040,40360
42043,40365
42047,40370
42052,40375
42058,40379
42064,40383
42070,40385
42076,40387
42082,40388
42085,40388
42086,40388
42088,40389
42088,40389
42089,40389
42091,40389
42093,40388
42094,40388
42101,40387
42108,40385
42115,40382
42122,40378
42127,40373
42128,40372
42133,40366
42137,40360
42140,40354
42142,40347
42143,40345
42143,40343
42143,40342
42144,40339
42144,40336
42144,40335
42128,40335
42128,40335
42127,40342
42126,40348
42123,40353
42119,40358
42115,40363
42110,40367
42104,40370
42098,40372
42095,40372
42092,40373
42088,40373
42084,40372
42081,40372
42079,40372
42073,40370
42067,40367
42062,40363
42058,40358
42054,40353
42052,40348
42050,40342
42049,40336
42049,40331
42050,40324
42052,40318
42054,40313
42058,40308
42060,40306
42064,40302
42070,40298
42076,40296
42082,40294
42088,40293
42094,40294
42101,40295
42102,40296
42106,40297
42109,40299
42112,40301
42116,40304
42117,40305
42119,40308
42121,40310
42122,40311
42123,40313
42124,40315
42126,40320
42128,40325
42128,40330
42128,40335
42144,40335
42144,40333
42144,40329
42144,40327
42143,40325
42143,40323
42143,40321
42143,40320
42142,40318
42139,40311
42136,40304
42131,40298
42126,40292
42120,40287
42114,40284
42106,40281
42101,40279
42098,40278
42094,40278
42089,40278
42084,40278
" /> 
<polyline style="fill-rule:evenodd;"
points="42384,39986
42381,39987
42379,39987
42377,39987
42375,39987
42373,39988
42366,39990
42359,39994
42353,39998
42349,40001
42345,40005
42342,40010
42339,40014
42338,40017
42335,40024
42333,40031
42332,40038
42332,40045
42333,40052
42335,40059
42337,40066
42341,40072
42345,40077
42350,40083
42356,40087
42362,40091
42369,40094
42370,40094
42375,40096
42382,40097
42388,40097
42394,40097
42396,40096
42402,40095
42409,40093
42415,40089
42421,40086
42426,40081
42427,40080
42432,40074
42436,40068
42439,40061
42441,40054
42442,40047
42443,40040
42427,40040
42427,40046
42426,40052
42423,40058
42420,40064
42418,40067
42414,40071
42409,40075
42403,40078
42398,40080
42394,40081
42391,40081
42387,40081
42384,40081
42380,40081
42377,40080
42376,40080
42370,40077
42364,40074
42359,40070
42355,40065
42352,40059
42352,40059
42350,40054
42348,40050
42348,40045
42348,40041
42348,40035
42349,40029
42352,40023
42355,40018
42359,40013
42362,40011
42364,40010
42365,40008
42367,40007
42369,40006
42374,40004
42378,40003
42382,40002
42386,40002
42387,40002
42394,40002
42400,40004
42406,40006
42411,40010
42414,40013
42419,40017
42422,40023
42425,40028
42426,40034
42427,40040
42443,40040
42443,40040
42442,40033
42440,40026
42438,40019
42435,40012
42430,40006
42427,40002
42422,39998
42418,39995
42413,39992
42411,39991
42407,39990
42404,39988
42400,39987
42397,39987
42393,39987
42388,39986
42387,39986
42384,39986
" /> 
<polyline style="fill-rule:evenodd;"
points="42077,39672
42069,39674
42063,39677
42056,39680
42056,39680
42050,39685
42044,39691
42040,39697
42036,39704
42033,39711
42033,39712
42032,39714
42032,39715
42032,39717
42031,39719
42031,39721
42031,39724
42031,39727
42031,39730
42031,39733
42032,39735
42032,39737
42032,39738
42032,39740
42033,39741
42036,39749
42039,39756
42044,39762
42049,39768
42055,39772
42062,39776
42063,39777
42069,39779
42075,39781
42081,39782
42087,39782
42091,39782
42099,39781
42106,39778
42113,39775
42120,39771
42125,39766
42127,39765
42131,39759
42135,39752
42138,39746
42140,39739
42142,39732
42142,39725
42126,39725
42126,39731
42125,39737
42123,39743
42120,39748
42116,39753
42111,39758
42106,39761
42101,39764
42099,39765
42092,39766
42086,39766
42079,39766
42076,39765
42070,39763
42065,39760
42060,39756
42059,39755
42054,39750
42051,39745
42049,39740
42047,39735
42047,39729
42047,39723
42047,39719
42049,39714
42051,39709
42051,39709
42054,39704
42058,39699
42062,39695
42068,39692
42073,39689
42079,39688
42085,39687
42092,39687
42097,39689
42103,39691
42108,39694
42113,39697
42117,39702
42121,39707
42123,39712
42125,39718
42125,39719
42126,39725
42142,39725
42142,39725
42141,39717
42139,39710
42137,39704
42133,39697
42129,39691
42124,39686
42118,39681
42112,39678
42105,39675
42098,39673
42091,39671
42084,39671
42077,39672
" /> 
</g>
<g style="fill:#000000; fill-opacity:1.0; 
stroke:#000000; stroke-width:51.1811; stroke-opacity:1; 
stroke-linecap:round; stroke-linejoin:round;">
</g>
<g style="fill:#000000; fill-opacity:0.0; 
stroke:#000000; stroke-width:51.1811; stroke-opacity:1; 
stroke-linecap:round; stroke-linejoin:round;">
<path d="M42535 37714
L42535 37162
" />
<path d="M42535 37162
L43716 37162
" />
<path d="M43716 37162
L43716 37714
" />
<path d="M43716 37714
L42535 37714
" />
<path d="M42535 38314
L42535 37762
" />
<path d="M42535 37762
L43716 37762
" />
<path d="M43716 37762
L43716 38314
" />
<path d="M43716 38314
L42535 38314
" />
<path d="M42451 37129
L41900 37129
" />
<path d="M41900 37129
L41900 35948
" />
<path d="M41900 35948
L42451 35948
" />
<path d="M42451 35948
L42451 37129
" />
<path d="M42535 38914
L42535 38362
" />
<path d="M42535 38362
L43716 38362
" />
<path d="M43716 38362
L43716 38914
" />
<path d="M43716 38914
L42535 38914
" />
</g>
<g style="fill:#000000; fill-opacity:0.0; 
stroke:#000000; stroke-width:50; stroke-opacity:1; 
stroke-linecap:round; stroke-linejoin:round;">
<path d="M44726 35345
L44740 35360
L44783 35374
L44812 35374
L44854 35360
L44883 35331
L44897 35302
L44912 35245
L44912 35202
L44897 35145
L44883 35117
L44854 35088
L44812 35074
L44783 35074
L44740 35088
L44726 35102
" />
<path d="M44469 35174
L44469 35374
" />
<path d="M44540 35060
L44612 35274
L44426 35274
" />
<path d="M44726 34045
L44740 34060
L44783 34074
L44812 34074
L44854 34060
L44883 34031
L44897 34002
L44912 33945
L44912 33902
L44897 33845
L44883 33817
L44854 33788
L44812 33774
L44783 33774
L44740 33788
L44726 33802
" />
<path d="M44626 33774
L44440 33774
L44540 33888
L44497 33888
L44469 33902
L44454 33917
L44440 33945
L44440 34017
L44454 34045
L44469 34060
L44497 34074
L44583 34074
L44612 34060
L44626 34045
" />
<path d="M40457 32852
L40457 32552
L40343 32552
L40314 32566
L40300 32580
L40286 32609
L40286 32652
L40300 32680
L40314 32695
L40343 32709
L40457 32709
" />
<path d="M40000 32852
L40171 32852
" />
<path d="M40086 32852
L40086 32552
L40114 32595
L40143 32623
L40171 32637
" />
</g>
<g style="fill:#000000; fill-opacity:0.0; 
stroke:#000000; stroke-width:59.0551; stroke-opacity:1; 
stroke-linecap:round; stroke-linejoin:round;">
<path d="M46197 32257
L46216 32238
L46254 32182
L46272 32144
L46291 32088
L46310 31994
L46310 31919
L46291 31826
L46272 31769
L46254 31732
L46216 31676
L46197 31657
" />
<path d="M46047 32107
L46047 31713
L45954 31713
L45898 31732
L45860 31769
L45841 31807
L45823 31882
L45823 31938
L45841 32013
L45860 32050
L45898 32088
L45954 32107
L46047 32107
" />
<path d="M45710 31713
L45485 31713
" />
<path d="M45598 32107
L45598 31713
" />
<path d="M45354 31901
L45223 31901
" />
<path d="M45166 32107
L45354 32107
L45354 31713
L45166 31713
" />
<path d="M44698 32107
L44698 31713
L44548 31713
L44510 31732
L44491 31751
L44473 31788
L44473 31844
L44491 31882
L44510 31901
L44548 31919
L44698 31919
" />
<path d="M44154 32088
L44191 32107
L44266 32107
L44304 32088
L44323 32050
L44323 31901
L44304 31863
L44266 31844
L44191 31844
L44154 31863
L44135 31901
L44135 31938
L44323 31976
" />
<path d="M43967 32107
L43967 31844
" />
<path d="M43967 31919
L43948 31882
L43929 31863
L43892 31844
L43854 31844
" />
<path d="M43742 32088
L43704 32107
L43629 32107
L43592 32088
L43573 32050
L43573 32032
L43592 31994
L43629 31976
L43685 31976
L43723 31957
L43742 31919
L43742 31901
L43723 31863
L43685 31844
L43629 31844
L43592 31863
" />
<path d="M43404 31844
L43404 32238
" />
<path d="M43404 31863
L43367 31844
L43292 31844
L43254 31863
L43235 31882
L43217 31919
L43217 32032
L43235 32069
L43254 32088
L43292 32107
L43367 32107
L43404 32088
" />
<path d="M42898 32088
L42935 32107
L43010 32107
L43048 32088
L43067 32050
L43067 31901
L43048 31863
L43010 31844
L42935 31844
L42898 31863
L42879 31901
L42879 31938
L43067 31976
" />
<path d="M42542 32088
L42579 32107
L42654 32107
L42692 32088
L42710 32069
L42729 32032
L42729 31919
L42710 31882
L42692 31863
L42654 31844
L42579 31844
L42542 31863
" />
<path d="M42429 31844
L42279 31844
" />
<path d="M42373 31713
L42373 32050
L42354 32088
L42317 32107
L42279 32107
" />
<path d="M42148 32107
L42148 31844
" />
<path d="M42148 31713
L42167 31732
L42148 31751
L42129 31732
L42148 31713
L42148 31751
" />
<path d="M41998 31844
L41904 32107
L41811 31844
" />
<path d="M41511 32088
L41548 32107
L41623 32107
L41661 32088
L41679 32050
L41679 31901
L41661 31863
L41623 31844
L41548 31844
L41511 31863
L41492 31901
L41492 31938
L41679 31976
" />
<path d="M41361 32257
L41342 32238
L41304 32182
L41286 32144
L41267 32088
L41248 31994
L41248 31919
L41267 31826
L41286 31769
L41304 31732
L41342 31676
L41361 31657
" />
</g>
<g style="fill:#000000; fill-opacity:0.0; 
stroke:#000000; stroke-width:47.2441; stroke-opacity:1; 
stroke-linecap:round; stroke-linejoin:round;">
<path d="M40667 33337
L40496 33337
L40588 33442
L40549 33442
L40523 33455
L40510 33468
L40496 33495
L40496 33560
L40510 33587
L40523 33600
L40549 33613
L40628 33613
L40654 33600
L40667 33587
" />
<path d="M40418 33337
L40326 33613
L40234 33337
" />
<path d="M40168 33337
L39998 33337
L40090 33442
L40050 33442
L40024 33455
L40011 33468
L39998 33495
L39998 33560
L40011 33587
L40024 33600
L40050 33613
L40129 33613
L40155 33600
L40168 33587
" />
</g>
<g style="fill:#000000; fill-opacity:0.0; 
stroke:#000000; stroke-width:59.0551; stroke-opacity:1; 
stroke-linecap:round; stroke-linejoin:round;">
<path d="M45119 31113
L44988 31113
" />
<path d="M44932 31319
L45119 31319
L45119 30926
L44932 30926
" />
<path d="M44782 31301
L44726 31319
L44632 31319
L44595 31301
L44576 31282
L44557 31244
L44557 31207
L44576 31169
L44595 31151
L44632 31132
L44707 31113
L44745 31094
L44763 31076
L44782 31038
L44782 31001
L44763 30963
L44745 30944
L44707 30926
L44613 30926
L44557 30944
" />
<path d="M44388 31319
L44388 30926
L44238 30926
L44201 30944
L44182 30963
L44163 31001
L44163 31057
L44182 31094
L44201 31113
L44238 31132
L44388 31132
" />
<path d="M43732 30926
L43470 31319
" />
<path d="M43470 30926
L43732 31319
" />
<path d="M43188 31113
L43132 31132
L43113 31151
L43095 31188
L43095 31244
L43113 31282
L43132 31301
L43170 31319
L43320 31319
L43320 30926
L43188 30926
L43151 30944
L43132 30963
L43113 31001
L43113 31038
L43132 31076
L43151 31094
L43188 31113
L43320 31113
" />
<path d="M42776 31301
L42814 31319
L42889 31319
L42926 31301
L42945 31263
L42945 31113
L42926 31076
L42889 31057
L42814 31057
L42776 31076
L42757 31113
L42757 31151
L42945 31188
" />
<path d="M42439 31301
L42476 31319
L42551 31319
L42589 31301
L42607 31263
L42607 31113
L42589 31076
L42551 31057
L42476 31057
L42439 31076
L42420 31113
L42420 31151
L42607 31188
" />
</g>
<g style="fill:#000000; fill-opacity:0.0; 
stroke:#000000; stroke-width:47.2441; stroke-opacity:1; 
stroke-linecap:round; stroke-linejoin:round;">
<path d="M40992 34413
L40992 34137
L40926 34137
L40887 34150
L40861 34177
L40847 34203
L40834 34255
L40834 34295
L40847 34347
L40861 34373
L40887 34400
L40926 34413
L40992 34413
" />
<path d="M40664 34137
L40611 34137
L40585 34150
L40559 34177
L40546 34229
L40546 34321
L40559 34373
L40585 34400
L40611 34413
L40664 34413
L40690 34400
L40716 34373
L40729 34321
L40729 34229
L40716 34177
L40690 34150
L40664 34137
" />
<path d="M40427 34137
L40427 34360
L40414 34387
L40401 34400
L40375 34413
L40322 34413
L40296 34400
L40283 34387
L40270 34360
L40270 34137
" />
<path d="M40178 34137
L40021 34137
" />
<path d="M40099 34413
L40099 34137
" />
<path d="M40608 35213
L40608 34937
L40542 34937
L40503 34950
L40477 34977
L40464 35003
L40451 35055
L40451 35095
L40464 35147
L40477 35173
L40503 35200
L40542 35213
L40608 35213
" />
<path d="M40332 35213
L40332 34937
" />
<path d="M40201 35213
L40201 34937
L40044 35213
L40044 34937
" />
<path d="M40839 36013
L40839 35737
L40774 35737
L40734 35750
L40708 35777
L40695 35803
L40682 35855
L40682 35895
L40695 35947
L40708 35973
L40734 36000
L40774 36013
L40839 36013
" />
<path d="M40564 36013
L40564 35737
" />
<path d="M40380 35737
L40327 35737
L40301 35750
L40275 35777
L40262 35829
L40262 35921
L40275 35973
L40301 36000
L40327 36013
L40380 36013
L40406 36000
L40432 35973
L40446 35921
L40446 35829
L40432 35777
L40406 35750
L40380 35737
" />
<path d="M40104 35855
L40131 35842
L40144 35829
L40157 35803
L40157 35790
L40144 35763
L40131 35750
L40104 35737
L40052 35737
L40026 35750
L40012 35763
L39999 35790
L39999 35803
L40012 35829
L40026 35842
L40052 35855
L40104 35855
L40131 35868
L40144 35882
L40157 35908
L40157 35960
L40144 35987
L40131 36000
L40104 36013
L40052 36013
L40026 36000
L40012 35987
L39999 35960
L39999 35908
L40012 35882
L40026 35868
L40052 35855
" />
<path d="M40976 36813
L41068 36682
" />
<path d="M41134 36813
L41134 36537
L41029 36537
L41002 36550
L40989 36563
L40976 36590
L40976 36629
L40989 36655
L41002 36668
L41029 36682
L41134 36682
" />
<path d="M40858 36668
L40766 36668
" />
<path d="M40727 36813
L40858 36813
L40858 36537
L40727 36537
" />
<path d="M40622 36800
L40582 36813
L40517 36813
L40491 36800
L40477 36787
L40464 36760
L40464 36734
L40477 36708
L40491 36695
L40517 36682
L40569 36668
L40596 36655
L40609 36642
L40622 36616
L40622 36590
L40609 36563
L40596 36550
L40569 36537
L40504 36537
L40464 36550
" />
<path d="M40346 36668
L40254 36668
" />
<path d="M40215 36813
L40346 36813
L40346 36537
L40215 36537
" />
<path d="M40136 36537
L39979 36537
" />
<path d="M40058 36813
L40058 36537
" />
<path d="M41199 36490
L39953 36490
" />
<path d="M42254 37563
L42254 37287
L42150 37287
L42123 37300
L42110 37313
L42097 37340
L42097 37379
L42110 37405
L42123 37418
L42150 37432
L42254 37432
" />
<path d="M42005 37287
L41940 37563
L41887 37366
L41835 37563
L41769 37287
" />
<path d="M41664 37563
L41664 37287
L41572 37484
L41480 37287
L41480 37563
" />
<path d="M41296 37287
L41270 37287
L41244 37300
L41231 37313
L41218 37340
L41205 37392
L41205 37458
L41218 37510
L41231 37537
L41244 37550
L41270 37563
L41296 37563
L41323 37550
L41336 37537
L41349 37510
L41362 37458
L41362 37392
L41349 37340
L41336 37313
L41323 37300
L41296 37287
" />
<path d="M40890 37274
L41126 37628
" />
<path d="M40640 37563
L40732 37432
" />
<path d="M40798 37563
L40798 37287
L40693 37287
L40667 37300
L40653 37313
L40640 37340
L40640 37379
L40653 37405
L40667 37418
L40693 37432
L40798 37432
" />
<path d="M40535 37550
L40496 37563
L40430 37563
L40404 37550
L40391 37537
L40378 37510
L40378 37484
L40391 37458
L40404 37445
L40430 37432
L40483 37418
L40509 37405
L40522 37392
L40535 37366
L40535 37340
L40522 37313
L40509 37300
L40483 37287
L40417 37287
L40378 37300
" />
<path d="M40273 37550
L40233 37563
L40168 37563
L40142 37550
L40129 37537
L40115 37510
L40115 37484
L40129 37458
L40142 37445
L40168 37432
L40220 37418
L40247 37405
L40260 37392
L40273 37366
L40273 37340
L40260 37313
L40247 37300
L40220 37287
L40155 37287
L40115 37300
" />
<path d="M39997 37563
L39997 37287
" />
<path d="M40994 38363
L40994 38087
L40889 38087
L40863 38100
L40850 38113
L40837 38140
L40837 38179
L40850 38205
L40863 38218
L40889 38232
L40994 38232
" />
<path d="M40745 38087
L40679 38363
L40627 38166
L40574 38363
L40509 38087
" />
<path d="M40404 38363
L40404 38087
L40312 38284
L40220 38087
L40220 38363
" />
<path d="M39944 38363
L40102 38363
" />
<path d="M40023 38363
L40023 38087
L40049 38127
L40076 38153
L40102 38166
" />
<path d="M41740 39163
L41831 39032
" />
<path d="M41897 39163
L41897 38887
L41792 38887
L41766 38900
L41753 38913
L41740 38940
L41740 38979
L41753 39005
L41766 39018
L41792 39032
L41897 39032
" />
<path d="M41621 39018
L41530 39018
" />
<path d="M41490 39163
L41621 39163
L41621 38887
L41490 38887
" />
<path d="M41385 39150
L41346 39163
L41280 39163
L41254 39150
L41241 39137
L41228 39110
L41228 39084
L41241 39058
L41254 39045
L41280 39032
L41333 39018
L41359 39005
L41372 38992
L41385 38966
L41385 38940
L41372 38913
L41359 38900
L41333 38887
L41267 38887
L41228 38900
" />
<path d="M41110 39018
L41018 39018
" />
<path d="M40978 39163
L41110 39163
L41110 38887
L40978 38887
" />
<path d="M40703 39163
L40795 39032
" />
<path d="M40860 39163
L40860 38887
L40755 38887
L40729 38900
L40716 38913
L40703 38940
L40703 38979
L40716 39005
L40729 39018
L40755 39032
L40860 39032
" />
<path d="M40624 38887
L40532 39163
L40440 38887
" />
<path d="M40348 39018
L40257 39018
" />
<path d="M40217 39163
L40348 39163
L40348 38887
L40217 38887
" />
<path d="M40099 39163
L40099 38887
L40033 38887
L39994 38900
L39968 38927
L39955 38953
L39942 39005
L39942 39045
L39955 39097
L39968 39123
L39994 39150
L40033 39163
L40099 39163
" />
<path d="M40641 39963
L40641 39687
L40575 39687
L40536 39700
L40510 39727
L40496 39753
L40483 39805
L40483 39845
L40496 39897
L40510 39923
L40536 39950
L40575 39963
L40641 39963
" />
<path d="M40405 39687
L40247 39687
" />
<path d="M40326 39963
L40326 39687
" />
<path d="M39998 39963
L40090 39832
" />
<path d="M40155 39963
L40155 39687
L40050 39687
L40024 39700
L40011 39713
L39998 39740
L39998 39779
L40011 39805
L40024 39818
L40050 39832
L40155 39832
" />
<path d="M40706 39640
L39945 39640
" />
<path d="M40536 40450
L40562 40437
L40601 40437
L40641 40450
L40667 40477
L40680 40503
L40693 40555
L40693 40595
L40680 40647
L40667 40673
L40641 40700
L40601 40713
L40575 40713
L40536 40700
L40523 40687
L40523 40595
L40575 40595
" />
<path d="M40405 40713
L40405 40437
L40247 40713
L40247 40437
" />
<path d="M40116 40713
L40116 40437
L40050 40437
L40011 40450
L39985 40477
L39972 40503
L39958 40555
L39958 40595
L39972 40647
L39985 40673
L40011 40700
L40050 40713
L40116 40713
" />
</g>
<g style="fill:#000000; fill-opacity:0.0; 
stroke:#000000; stroke-width:50; stroke-opacity:1; 
stroke-linecap:round; stroke-linejoin:round;">
<path d="M44126 36345
L44140 36360
L44183 36374
L44212 36374
L44254 36360
L44283 36331
L44297 36302
L44312 36245
L44312 36202
L44297 36145
L44283 36117
L44254 36088
L44212 36074
L44183 36074
L44140 36088
L44126 36102
" />
<path d="M43840 36374
L44012 36374
" />
<path d="M43926 36374
L43926 36074
L43954 36117
L43983 36145
L44012 36160
" />
<path d="M44126 36945
L44140 36960
L44183 36974
L44212 36974
L44254 36960
L44283 36931
L44297 36902
L44312 36845
L44312 36802
L44297 36745
L44283 36717
L44254 36688
L44212 36674
L44183 36674
L44140 36688
L44126 36702
" />
<path d="M44012 36702
L43997 36688
L43969 36674
L43897 36674
L43869 36688
L43854 36702
L43840 36731
L43840 36760
L43854 36802
L44026 36974
L43840 36974
" />
<path d="M44126 37574
L44226 37431
" />
<path d="M44297 37574
L44297 37274
L44183 37274
L44154 37288
L44140 37302
L44126 37331
L44126 37374
L44140 37402
L44154 37417
L44183 37431
L44297 37431
" />
<path d="M43840 37574
L44012 37574
" />
<path d="M43926 37574
L43926 37274
L43954 37317
L43983 37345
L44012 37360
" />
<path d="M44126 38174
L44226 38031
" />
<path d="M44297 38174
L44297 37874
L44183 37874
L44154 37888
L44140 37902
L44126 37931
L44126 37974
L44140 38002
L44154 38017
L44183 38031
L44297 38031
" />
<path d="M44012 37902
L43997 37888
L43969 37874
L43897 37874
L43869 37888
L43854 37902
L43840 37931
L43840 37960
L43854 38002
L44026 38174
L43840 38174
" />
<path d="M41812 36488
L41669 36388
" />
<path d="M41812 36317
L41512 36317
L41512 36431
L41526 36460
L41540 36474
L41569 36488
L41612 36488
L41640 36474
L41654 36460
L41669 36431
L41669 36317
" />
<path d="M41512 36588
L41512 36774
L41626 36674
L41626 36717
L41640 36745
L41654 36760
L41683 36774
L41754 36774
L41783 36760
L41797 36745
L41812 36717
L41812 36631
L41797 36602
L41783 36588
" />
<path d="M44126 38774
L44226 38631
" />
<path d="M44297 38774
L44297 38474
L44183 38474
L44154 38488
L44140 38502
L44126 38531
L44126 38574
L44140 38602
L44154 38617
L44183 38631
L44297 38631
" />
<path d="M43869 38574
L43869 38774
" />
<path d="M43940 38460
L44012 38674
L43826 38674
" />
<path d="M47544 32852
L47544 32552
L47429 32552
L47401 32566
L47387 32580
L47372 32609
L47372 32652
L47387 32680
L47401 32695
L47429 32709
L47544 32709
" />
<path d="M47258 32580
L47244 32566
L47215 32552
L47144 32552
L47115 32566
L47101 32580
L47087 32609
L47087 32637
L47101 32680
L47272 32852
L47087 32852
" />
</g>
<g style="fill:#000000; fill-opacity:0.0; 
stroke:#000000; stroke-width:47.2441; stroke-opacity:1; 
stroke-linecap:round; stroke-linejoin:round;">
<path d="M47572 33549
L47440 33549
" />
<path d="M47598 33628
L47506 33353
L47414 33628
" />
<path d="M47322 33628
L47322 33353
L47257 33353
L47217 33366
L47191 33392
L47178 33418
L47165 33471
L47165 33510
L47178 33562
L47191 33589
L47217 33615
L47257 33628
L47322 33628
" />
<path d="M46994 33353
L46968 33353
L46942 33366
L46929 33379
L46916 33405
L46902 33458
L46902 33523
L46916 33576
L46929 33602
L46942 33615
L46968 33628
L46994 33628
L47020 33615
L47034 33602
L47047 33576
L47060 33523
L47060 33458
L47047 33405
L47034 33379
L47020 33366
L46994 33353
" />
<path d="M46587 33339
L46824 33694
" />
<path d="M46496 33628
L46496 33353
L46430 33353
L46391 33366
L46364 33392
L46351 33418
L46338 33471
L46338 33510
L46351 33562
L46364 33589
L46391 33615
L46430 33628
L46496 33628
" />
<path d="M46220 33628
L46220 33353
" />
<path d="M46036 33353
L45984 33353
L45958 33366
L45931 33392
L45918 33444
L45918 33536
L45931 33589
L45958 33615
L45984 33628
L46036 33628
L46062 33615
L46089 33589
L46102 33536
L46102 33444
L46089 33392
L46062 33366
L46036 33353
" />
<path d="M45748 33353
L45721 33353
L45695 33366
L45682 33379
L45669 33405
L45656 33458
L45656 33523
L45669 33576
L45682 33602
L45695 33615
L45721 33628
L45748 33628
L45774 33615
L45787 33602
L45800 33576
L45813 33523
L45813 33458
L45800 33405
L45787 33379
L45774 33366
L45748 33353
" />
<path d="M47572 34337
L47440 34337
" />
<path d="M47598 34416
L47506 34140
L47414 34416
" />
<path d="M47322 34416
L47322 34140
L47257 34140
L47217 34153
L47191 34179
L47178 34206
L47165 34258
L47165 34297
L47178 34350
L47191 34376
L47217 34402
L47257 34416
L47322 34416
" />
<path d="M46902 34416
L47060 34416
" />
<path d="M46981 34416
L46981 34140
L47007 34179
L47034 34206
L47060 34219
" />
<path d="M46587 34127
L46824 34481
" />
<path d="M46496 34416
L46496 34140
L46430 34140
L46391 34153
L46364 34179
L46351 34206
L46338 34258
L46338 34297
L46351 34350
L46364 34376
L46391 34402
L46430 34416
L46496 34416
" />
<path d="M46220 34416
L46220 34140
" />
<path d="M46036 34140
L45984 34140
L45958 34153
L45931 34179
L45918 34232
L45918 34324
L45931 34376
L45958 34402
L45984 34416
L46036 34416
L46062 34402
L46089 34376
L46102 34324
L46102 34232
L46089 34179
L46062 34153
L46036 34140
" />
<path d="M45656 34416
L45813 34416
" />
<path d="M45734 34416
L45734 34140
L45761 34179
L45787 34206
L45813 34219
" />
<path d="M47572 35124
L47440 35124
" />
<path d="M47598 35203
L47506 34927
L47414 35203
" />
<path d="M47322 35203
L47322 34927
L47257 34927
L47217 34940
L47191 34967
L47178 34993
L47165 35045
L47165 35085
L47178 35137
L47191 35164
L47217 35190
L47257 35203
L47322 35203
" />
<path d="M47060 34954
L47047 34940
L47020 34927
L46955 34927
L46929 34940
L46916 34954
L46902 34980
L46902 35006
L46916 35045
L47073 35203
L46902 35203
" />
<path d="M46587 34914
L46824 35269
" />
<path d="M46496 35203
L46496 34927
L46430 34927
L46391 34940
L46364 34967
L46351 34993
L46338 35045
L46338 35085
L46351 35137
L46364 35164
L46391 35190
L46430 35203
L46496 35203
" />
<path d="M46220 35203
L46220 34927
" />
<path d="M46036 34927
L45984 34927
L45958 34940
L45931 34967
L45918 35019
L45918 35111
L45931 35164
L45958 35190
L45984 35203
L46036 35203
L46062 35190
L46089 35164
L46102 35111
L46102 35019
L46089 34967
L46062 34940
L46036 34927
" />
<path d="M45813 34954
L45800 34940
L45774 34927
L45708 34927
L45682 34940
L45669 34954
L45656 34980
L45656 35006
L45669 35045
L45826 35203
L45656 35203
" />
<path d="M47572 35912
L47440 35912
" />
<path d="M47598 35990
L47506 35715
L47414 35990
" />
<path d="M47322 35990
L47322 35715
L47257 35715
L47217 35728
L47191 35754
L47178 35780
L47165 35833
L47165 35872
L47178 35925
L47191 35951
L47217 35977
L47257 35990
L47322 35990
" />
<path d="M47073 35715
L46902 35715
L46994 35820
L46955 35820
L46929 35833
L46916 35846
L46902 35872
L46902 35938
L46916 35964
L46929 35977
L46955 35990
L47034 35990
L47060 35977
L47073 35964
" />
<path d="M46587 35702
L46824 36056
" />
<path d="M46496 35990
L46496 35715
L46430 35715
L46391 35728
L46364 35754
L46351 35780
L46338 35833
L46338 35872
L46351 35925
L46364 35951
L46391 35977
L46430 35990
L46496 35990
" />
<path d="M46220 35990
L46220 35715
" />
<path d="M46036 35715
L45984 35715
L45958 35728
L45931 35754
L45918 35807
L45918 35898
L45931 35951
L45958 35977
L45984 35990
L46036 35990
L46062 35977
L46089 35951
L46102 35898
L46102 35807
L46089 35754
L46062 35728
L46036 35715
" />
<path d="M45826 35715
L45656 35715
L45748 35820
L45708 35820
L45682 35833
L45669 35846
L45656 35872
L45656 35938
L45669 35964
L45682 35977
L45708 35990
L45787 35990
L45813 35977
L45826 35964
" />
<path d="M47355 36778
L47447 36646
" />
<path d="M47513 36778
L47513 36502
L47408 36502
L47381 36515
L47368 36528
L47355 36555
L47355 36594
L47368 36620
L47381 36633
L47408 36646
L47513 36646
" />
<path d="M47276 36502
L47119 36502
" />
<path d="M47198 36778
L47198 36502
" />
<path d="M47040 36765
L47001 36778
L46935 36778
L46909 36765
L46896 36751
L46883 36725
L46883 36699
L46896 36673
L46909 36660
L46935 36646
L46988 36633
L47014 36620
L47027 36607
L47040 36581
L47040 36555
L47027 36528
L47014 36515
L46988 36502
L46922 36502
L46883 36515
" />
<path d="M47578 36455
L46830 36455
" />
<path d="M47559 37486
L47427 37486
" />
<path d="M47585 37565
L47493 37290
L47401 37565
" />
<path d="M47322 37552
L47283 37565
L47217 37565
L47191 37552
L47178 37539
L47165 37513
L47165 37486
L47178 37460
L47191 37447
L47217 37434
L47270 37421
L47296 37408
L47309 37395
L47322 37368
L47322 37342
L47309 37316
L47296 37303
L47270 37290
L47204 37290
L47165 37303
" />
<path d="M47060 37552
L47020 37565
L46955 37565
L46929 37552
L46916 37539
L46902 37513
L46902 37486
L46916 37460
L46929 37447
L46955 37434
L47007 37421
L47034 37408
L47047 37395
L47060 37368
L47060 37342
L47047 37316
L47034 37303
L47007 37290
L46942 37290
L46902 37303
" />
<path d="M46732 37290
L46679 37290
L46653 37303
L46627 37329
L46614 37381
L46614 37473
L46627 37526
L46653 37552
L46679 37565
L46732 37565
L46758 37552
L46784 37526
L46797 37473
L46797 37381
L46784 37329
L46758 37303
L46732 37290
" />
<path d="M46338 37539
L46351 37552
L46391 37565
L46417 37565
L46456 37552
L46482 37526
L46496 37500
L46509 37447
L46509 37408
L46496 37355
L46482 37329
L46456 37303
L46417 37290
L46391 37290
L46351 37303
L46338 37316
" />
<path d="M46220 37565
L46220 37290
" />
<path d="M46102 37486
L45971 37486
" />
<path d="M46128 37565
L46036 37290
L45944 37565
" />
<path d="M45892 37290
L45734 37290
" />
<path d="M45813 37565
L45813 37290
" />
<path d="M45643 37421
L45551 37421
" />
<path d="M45511 37565
L45643 37565
L45643 37290
L45511 37290
" />
<path d="M47598 38077
L47506 38353
L47414 38077
" />
<path d="M47165 38353
L47257 38221
" />
<path d="M47322 38353
L47322 38077
L47217 38077
L47191 38090
L47178 38103
L47165 38129
L47165 38169
L47178 38195
L47191 38208
L47217 38221
L47322 38221
" />
<path d="M47047 38208
L46955 38208
" />
<path d="M46916 38353
L47047 38353
L47047 38077
L46916 38077
" />
<path d="M46706 38208
L46797 38208
" />
<path d="M46797 38353
L46797 38077
L46666 38077
" />
<path d="M47519 38864
L47467 38864
L47440 38877
L47414 38904
L47401 38956
L47401 39048
L47414 39101
L47440 39127
L47467 39140
L47519 39140
L47545 39127
L47572 39101
L47585 39048
L47585 38956
L47572 38904
L47545 38877
L47519 38864
" />
<path d="M47283 39140
L47283 38864
L47125 39140
L47125 38864
" />
<path d="M46797 38851
L47034 39206
" />
<path d="M46719 39127
L46679 39140
L46614 39140
L46587 39127
L46574 39114
L46561 39087
L46561 39061
L46574 39035
L46587 39022
L46614 39009
L46666 38996
L46692 38982
L46706 38969
L46719 38943
L46719 38917
L46706 38891
L46692 38877
L46666 38864
L46601 38864
L46561 38877
" />
<path d="M46312 39140
L46443 39140
L46443 38864
" />
<path d="M46220 38996
L46128 38996
" />
<path d="M46089 39140
L46220 39140
L46220 38864
L46089 38864
" />
<path d="M45971 38996
L45879 38996
" />
<path d="M45839 39140
L45971 39140
L45971 38864
L45839 38864
" />
<path d="M45721 39140
L45721 38864
L45616 38864
L45590 38877
L45577 38891
L45564 38917
L45564 38956
L45577 38982
L45590 38996
L45616 39009
L45721 39009
" />
<path d="M46771 38817
L45511 38817
" />
<path d="M47355 39901
L47368 39914
L47408 39927
L47434 39927
L47473 39914
L47500 39888
L47513 39862
L47526 39809
L47526 39770
L47513 39717
L47500 39691
L47473 39665
L47434 39652
L47408 39652
L47368 39665
L47355 39678
" />
<path d="M47276 39652
L47119 39652
" />
<path d="M47198 39927
L47198 39652
" />
<path d="M47040 39914
L47001 39927
L46935 39927
L46909 39914
L46896 39901
L46883 39875
L46883 39849
L46896 39822
L46909 39809
L46935 39796
L46988 39783
L47014 39770
L47027 39757
L47040 39730
L47040 39704
L47027 39678
L47014 39665
L46988 39652
L46922 39652
L46883 39665
" />
<path d="M47578 39604
L46830 39604
" />
<path d="M47572 40636
L47440 40636
" />
<path d="M47598 40715
L47506 40439
L47414 40715
" />
<path d="M47322 40715
L47322 40439
L47257 40439
L47217 40452
L47191 40479
L47178 40505
L47165 40557
L47165 40597
L47178 40649
L47191 40675
L47217 40702
L47257 40715
L47322 40715
" />
<path d="M46929 40531
L46929 40715
" />
<path d="M46994 40426
L47060 40623
L46889 40623
" />
<path d="M46587 40426
L46824 40780
" />
<path d="M46496 40715
L46496 40439
L46430 40439
L46391 40452
L46364 40479
L46351 40505
L46338 40557
L46338 40597
L46351 40649
L46364 40675
L46391 40702
L46430 40715
L46496 40715
" />
<path d="M46220 40715
L46220 40439
" />
<path d="M46036 40439
L45984 40439
L45958 40452
L45931 40479
L45918 40531
L45918 40623
L45931 40675
L45958 40702
L45984 40715
L46036 40715
L46062 40702
L46089 40675
L46102 40623
L46102 40531
L46089 40479
L46062 40452
L46036 40439
" />
<path d="M45682 40531
L45682 40715
" />
<path d="M45748 40426
L45813 40623
L45643 40623
" />
</g> 
</svg>
